<svg width="22" height="21" viewBox="0 0 22 21" fill="none" xmlns="http://www.w3.org/2000/svg">
<path d="M15.4469 7.9594H20.984L17.4556 4.42881C16.3197 3.29285 14.9047 2.47595 13.3529 2.06023C11.8012 1.64452 10.1673 1.64464 8.61559 2.06058C7.06389 2.47653 5.64903 3.29364 4.51325 4.42978C3.37747 5.56591 2.56079 6.98102 2.14533 8.53286M0.985103 19.3797V13.8426M0.985103 13.8426H6.52223M0.985103 13.8426L4.51236 17.3732C5.64831 18.5092 7.06329 19.3261 8.61506 19.7418C10.1668 20.1575 11.8007 20.1574 13.3524 19.7414C14.9041 19.3255 16.319 18.5084 17.4547 17.3722C18.5905 16.2361 19.4072 14.821 19.8227 13.2691M20.984 2.42227V7.95718" stroke="white" stroke-width="1.5" stroke-linecap="round" stroke-linejoin="round"/>
</svg>
