<svg width="400" height="400" viewBox="0 0 400 400" fill="none" xmlns="http://www.w3.org/2000/svg">
<rect width="400" height="400" fill="#333333"/>
<path d="M199.291 153.293C200.164 160.252 201.102 167.202 201.994 174.158C202.616 178.728 203.234 183.305 203.594 187.903C202.099 187.116 200.695 186.05 199.012 185.701C198.996 186.495 199.15 187.276 199.275 188.057C200.374 194.545 201.415 201.049 202.184 207.588C202.286 208.512 202.449 209.434 202.467 210.368C202.286 210.3 202.092 210.255 201.966 210.101C201.019 209.126 200.105 208.12 199.154 207.151C200.991 218.541 202.966 229.914 204.77 241.309C205.077 243.122 205.295 244.806 205.667 246.537C205.985 245.432 206.013 244.268 206.192 243.135C206.843 236.147 207.226 229.135 207.76 222.137C208.356 223.382 209.014 224.594 209.642 225.822C210.05 226.562 210.378 227.348 210.863 228.044C211.007 228.07 211.152 228.096 211.299 228.125C211.31 225 211.341 221.876 211.339 218.751C211.414 216.97 211.273 215.186 211.436 213.41C211.443 209.955 211.446 206.502 211.493 203.046C212.655 205.372 213.794 207.706 214.964 210.028C215.141 209.792 215.481 209.594 215.408 209.253C215.046 203.311 214.615 197.372 214.333 191.426C214.201 190.232 214.228 189.025 214.188 187.826C214.466 187.928 214.6 188.204 214.754 188.436C216.194 190.767 217.644 193.091 219.049 195.442C219.249 195.748 219.674 195.659 219.986 195.661C221.599 195.507 223.167 195.049 224.693 194.517C226.977 193.69 229.246 192.604 230.935 190.812C232.141 191.046 233.324 191.454 234.451 191.951C234.476 195.924 234.406 199.898 234.43 203.871C234.522 206.104 234.251 208.394 234.891 210.57C235.381 212.128 236.666 213.229 237.828 214.299C239.899 216.112 242.07 217.807 244.24 219.499C245.181 220.26 246.472 220.141 247.602 220.077C248.955 219.975 250.154 219.3 251.368 218.756C252.51 218.229 253.633 217.653 254.733 217.042C256.196 216.234 257.448 215.042 258.305 213.608C258.848 212.729 258.977 211.684 259.15 210.687C259.473 208.544 259.621 206.377 259.606 204.21C259.682 200.299 259.008 196.427 258.636 192.545L258.56 192.424C258.534 191.658 258.391 190.903 258.289 190.145C258.135 189.13 258.027 188.086 257.586 187.147C257.185 186.252 256.553 185.478 255.84 184.812C253.945 183.06 251.878 181.463 249.582 180.271C248.611 179.715 247.486 180.204 246.539 180.562C243.233 181.963 240.177 183.884 237.162 185.818C236.452 186.245 235.856 186.905 235.651 187.721C235.476 188.41 235.124 189.032 234.713 189.604C233.6 189.493 232.592 188.971 231.525 188.671C231.939 183.227 232.51 177.798 232.899 172.351C232.956 171.317 233.217 170.213 232.766 169.228C232.286 168.078 231.438 167.144 230.685 166.17C227.897 162.748 225.126 159.311 222.236 155.976C221.621 155.885 221.015 156.037 220.446 156.259C218.572 156.937 216.707 157.654 214.814 158.283C214.548 158.375 214.265 158.406 213.99 158.444C213.71 156.814 214.09 155.171 214.119 153.535C211.438 153.503 208.75 153.659 206.067 153.515C204.169 153.397 202.269 153.37 200.37 153.293H199.291ZM219.638 160.283C219.891 160.276 220.137 160.358 220.358 160.493C220.511 160.768 220.567 161.078 220.596 161.39C221.443 165.972 221.707 170.628 221.966 175.273C222.042 176.341 221.946 177.426 222.095 178.485C222.147 180.712 222.166 182.938 222.135 185.164C221.633 185.254 221.124 185.199 220.624 185.131C219.163 184.986 217.698 185.207 216.265 185.463C215.528 185.545 214.8 185.686 214.063 185.758C213.89 179.406 213.987 173.05 213.921 166.699C213.924 165.248 213.916 163.799 213.925 162.347C213.922 161.984 214.038 161.497 214.467 161.434C216.076 160.948 217.748 160.702 219.384 160.319C219.468 160.296 219.554 160.285 219.638 160.283H219.638ZM248.842 183.014C249.057 183.782 248.862 184.583 248.616 185.317C248.076 186.499 247.116 187.42 246.079 188.17C245.153 188.882 243.899 188.971 243.036 189.786C242.918 189.6 242.867 189.4 242.879 189.184C242.882 188.474 242.829 187.754 243.016 187.063C244.878 185.603 246.88 184.333 248.842 183.014V183.014ZM216.075 187.604C216.613 187.63 217.164 187.598 217.691 187.741C219.133 187.858 220.56 188.116 221.962 188.477L222.103 188.828C222.11 188.962 222.118 189.097 222.131 189.232C221.593 190.105 220.941 190.896 220.301 191.693C219.69 191.916 219.377 191.279 219.004 190.941C218.007 189.847 217.015 188.745 216.075 187.604V187.604ZM249.428 190.489C249.874 193.812 250.319 197.137 250.576 200.481C250.673 201.665 250.583 202.859 250.717 204.04C250.792 205.015 250.615 205.983 250.644 206.958C250.625 208.85 250.445 210.736 250.22 212.614C250.063 213.592 249.975 214.604 249.578 215.523C248.666 216.047 247.76 216.589 246.766 216.941C246.522 217.051 246.253 217.063 245.994 217.042C245.297 216.326 244.504 215.658 244.014 214.776C243.688 211.202 243.387 207.615 243.263 204.024C243.114 202.906 243.173 201.771 243.129 200.646C242.934 197.825 243.012 194.99 242.988 192.162C243.403 191.976 243.819 191.789 244.248 191.632C245.026 191.267 245.836 190.979 246.604 190.586C247.541 190.502 248.486 190.5 249.428 190.489V190.489Z" fill="white"/>
<path d="M162.526 161.505C162.932 161.4 163.465 161.516 163.65 161.931C163.803 164.049 163.74 166.187 163.903 168.302C163.926 168.412 163.973 168.634 163.996 168.745C164.178 168.727 164.375 168.729 164.527 168.603C165.618 167.855 166.688 167.076 167.802 166.361C168.332 166.038 168.865 165.687 169.471 165.524C170.037 165.442 170.454 165.925 170.738 166.348C171.562 167.57 172.188 168.913 172.817 170.245C173.524 171.885 174.355 173.5 174.756 175.252C174.963 175.929 174.266 176.318 173.82 176.659C171.577 178.23 169.266 179.711 166.874 181.049C166.323 181.4 166.048 180.546 165.673 180.281C166.137 179.727 166.623 179.189 167.123 178.663C167.32 178.486 167.192 178.2 167.15 177.98C166.564 176.118 166.066 174.229 165.473 172.37C165.457 172.272 165.424 172.076 165.408 171.977C164.886 171.845 164.348 171.929 163.873 172.171C163.829 172.254 163.742 172.419 163.698 172.501C163.587 175.47 163.711 178.44 163.69 181.411C163.677 185.076 163.711 188.742 163.706 192.407C163.831 193.425 163.758 194.452 163.776 195.475C163.789 198.125 163.806 200.776 163.845 203.426C164.312 204.593 165.45 205.269 166.171 206.234C165.51 206.267 164.854 206.198 164.204 206.098C163.238 206.082 162.261 206.009 161.305 206.001C159.75 205.852 158.174 205.957 156.632 206.166C155.937 206.253 155.226 206.179 154.539 206.326C153.641 206.327 152.684 206.497 151.84 206.104C151.401 205.904 150.958 205.705 150.504 205.539C150.526 205.485 150.57 205.38 150.593 205.327C151.406 204.855 152.11 204.221 152.787 203.577C153.384 202.972 153.993 202.3 154.16 201.438C154.657 199.055 154.716 196.613 154.871 194.192C154.892 187.129 154.987 180.068 155.07 173.008C155.047 172.742 155.128 172.443 154.99 172.2C155.22 171.599 155.039 170.896 155.095 170.255C154.693 170.373 154.294 170.497 153.898 170.63C153.715 170.636 153.533 170.642 153.353 170.649C153.269 170.512 153.179 170.376 153.098 170.24C153.371 169.884 153.735 169.621 154.067 169.325C156.455 166.977 158.835 164.621 161.213 162.263C161.55 161.865 162.027 161.626 162.526 161.505V161.505Z" fill="white"/>
<path d="M91.564 163.085C92.9394 163.215 94.3099 163.472 95.6998 163.444C97.9624 163.559 100.235 163.578 102.496 163.404C104.301 163.334 106.097 163.021 107.903 163.066C107.818 163.644 107.25 163.916 106.981 164.389C106.187 165.724 105.549 167.168 105.196 168.682C105.048 169.794 104.985 170.917 104.981 172.039C104.922 178.01 104.96 183.984 105.036 189.956C104.973 190.234 105.274 190.345 105.492 190.242C108.936 189.383 112.501 189.118 116.042 189.223C117.316 189.278 118.641 189.173 119.868 189.569C119.844 189.708 119.821 189.847 119.798 189.986C119.414 190.127 119.013 190.258 118.703 190.536C117.731 191.339 116.846 192.241 115.933 193.109C115.703 193.359 115.323 193.608 115.44 194.004C115.792 195.977 115.876 197.989 116.262 199.956C117.015 202.699 117.904 205.404 118.604 208.165C118.897 208.165 119.168 208.058 119.367 207.838C119.794 207.4 120.306 207.058 120.758 206.649C120.926 204.869 120.989 203.077 121.035 201.29C121.156 200.057 121.112 198.819 121.151 197.582C121.198 191.087 121.072 184.575 120.288 178.12C119.928 178.206 119.562 178.287 119.229 178.452C117.524 179.223 115.857 180.081 114.269 181.072C113.841 181.322 113.44 181.673 113.284 182.159C112.923 183.284 113.025 184.488 113.086 185.65C112.826 185.733 112.568 185.817 112.309 185.901C110.953 183.717 109.547 181.54 108.587 179.145C108.312 178.324 107.884 177.49 108.047 176.6C108.708 176.284 109.246 175.779 109.849 175.373C112.259 173.668 114.8 172.115 117.534 170.988C117.906 170.862 118.428 170.602 118.735 170.983C121.267 173.521 123.719 176.139 126.147 178.777C127.454 180.238 128.886 181.76 129.279 183.753C129.65 186.08 129.705 188.44 129.715 190.791C129.694 193.482 129.783 196.178 129.589 198.864C129.575 200.929 129.515 202.993 129.513 205.059C130.441 205.48 131.516 205.519 132.493 205.261C132.451 205.558 132.222 205.762 132.015 205.956C130.662 207.189 129.29 208.402 127.907 209.6C126.963 210.392 126.493 211.594 125.554 212.391C124.551 213.274 123.048 213.349 121.825 212.957C120.573 212.307 120.576 210.736 120.474 209.516C118.84 210.691 117.238 211.913 115.642 213.138C114.888 213.72 113.891 213.39 113.053 213.228C112.44 213.059 111.656 212.818 111.488 212.116C110.779 209.97 110.082 207.819 109.369 205.674C108.598 203.263 107.693 200.884 107.175 198.4C106.953 197.603 107.347 196.823 107.743 196.155C108.812 194.434 110.344 193.08 111.797 191.696C109.536 192.128 107.183 192.488 105.164 193.663C105.146 199.223 105.214 204.781 105.196 210.34C105.305 212.713 105.191 215.088 105.271 217.461C105.276 220.257 105.292 223.053 105.364 225.847C105.531 228.027 105.882 230.402 107.394 232.092C107.939 232.768 108.823 232.994 109.429 233.592C109.35 233.846 109.243 234.088 109.117 234.322C108.844 234.324 108.573 234.34 108.303 234.305C105.301 233.818 102.274 233.467 99.2359 233.346C96.3753 233.325 93.5018 233.217 90.6557 233.561C90.5135 233.094 90.04 232.727 90.0739 232.223C91.6594 231.336 93.1866 230.103 93.8105 228.333C94.6024 226.088 94.7058 223.682 94.9014 221.332C95.1034 217.076 95.1664 212.813 95.0452 208.554C94.9369 205.702 94.9612 202.836 94.6024 200C91.627 202.329 87.9438 203.504 84.3026 204.312C84.3333 210.232 84.4141 216.152 84.4545 222.072C84.5143 223.315 84.3963 224.567 84.5434 225.805C84.9054 227.163 86.2404 227.859 87.3539 228.528C87.6093 228.698 88.0214 229.063 87.7919 229.374C87.3281 229.432 86.9014 229.207 86.4602 229.112C85.0428 228.806 83.5931 228.713 82.1531 228.585C77.3628 228.263 72.558 228.183 67.758 228.157C67.5866 228.105 67.1131 227.94 67.467 227.782C67.48 227.643 67.5058 227.368 67.5188 227.229C69.2303 226.554 70.9515 225.571 71.9018 223.934C72.482 222.956 72.4965 221.792 72.5951 220.695C72.7293 218.539 72.6905 216.377 72.7745 214.217C72.7778 211.229 72.7131 208.241 72.6695 205.253C70.3988 204.2 68.1248 203.15 65.9107 201.981C64.3673 201.22 63.2731 199.821 62.3357 198.421C61.5487 197.185 60.844 195.888 60.2929 194.528V194.196C62.7624 193.076 65.4824 192.688 68.1458 192.323C68.1475 192.587 68.2234 192.934 67.9422 193.086C66.2824 194.08 64.5289 194.919 62.9111 195.987C63.4541 196.622 64.1313 197.117 64.8085 197.597C66.68 198.893 68.7066 199.948 70.7559 200.933C71.3151 201.183 71.8662 201.522 72.4982 201.529C72.5984 200.483 72.5337 199.429 72.545 198.381C72.4723 196.231 72.5289 194.075 72.3673 191.929C72.3139 190.309 72.3689 188.685 72.2218 187.072C72.0909 181.678 71.8501 176.286 71.6497 170.896C71.32 169.206 69.838 168.053 68.28 167.528C68.3075 167.206 68.4998 166.883 68.8327 166.81C69.379 166.76 69.9301 166.819 70.4763 166.854C71.2262 166.964 71.9842 166.895 72.739 166.911C73.867 166.896 75 166.962 76.1248 166.836C77.8477 166.802 79.5721 166.794 81.2965 166.752C82.7705 166.638 84.2509 166.617 85.7297 166.61C85.678 166.928 85.6246 167.245 85.5729 167.562C84.6565 168.031 84.0763 168.96 83.8323 169.936C83.6545 170.949 83.6788 171.984 83.6658 173.01C83.6658 175.704 83.6594 178.398 83.7563 181.089C83.8129 183.352 83.7757 185.619 83.9277 187.879C83.9567 189.605 83.9648 191.333 84.0295 193.059C84.1604 195.258 84.162 197.467 84.3252 199.669C85.3887 199.522 86.3454 198.987 87.2941 198.518C89.8671 197.099 92.3737 195.523 94.6541 193.665C94.6784 184.507 94.4246 175.344 93.699 166.217C93.665 165.262 92.9022 164.577 92.0974 164.192C91.6481 164.011 91.5107 163.53 91.564 163.085V163.085Z" fill="white"/>
<path d="M271.499 162.898C271.991 162.804 272.11 163.334 272.094 163.711C272.112 165.951 272.204 168.189 272.23 170.429C272.304 171.746 272.18 173.081 272.37 174.385C273.935 174.368 275.499 174.439 277.065 174.432C277.098 174.717 277.125 175.003 277.162 175.287C277.297 175.754 277.222 176.25 277.363 176.716C277.416 177.222 277.465 177.731 277.494 178.24C275.989 178.272 274.484 178.298 272.98 178.311C272.771 178.297 272.576 178.356 272.39 178.429C272.107 182.975 272.34 187.531 272.246 192.082C272.165 196.021 271.978 199.956 271.869 203.895C271.737 204.474 271.815 205.075 271.772 205.663C271.601 210.13 271.359 214.6 271.205 219.069C271.139 220.207 270.897 221.519 271.642 222.497C272.849 223.719 274.245 224.748 275.679 225.69C275.381 226.027 275.111 226.406 274.74 226.66C274.449 226.662 274.2 226.478 273.945 226.377C270.992 224.911 268.008 223.499 265.162 221.829C264.438 221.404 263.729 220.903 263.272 220.186C262.822 219.526 262.695 218.714 262.688 217.933C262.743 213.731 262.798 209.529 262.969 205.33C263.108 201.175 263.569 197.042 263.651 192.886C263.734 188.582 263.693 184.257 263.257 179.977C263.223 179.352 263.139 178.733 263.008 178.122C260.713 178.132 258.42 178.09 256.126 178.09C256.097 177.686 256.081 177.282 256.112 176.878C258.893 175.328 261.452 173.39 263.852 171.3C266.198 169.222 268.322 166.893 270.187 164.373C270.586 163.85 270.969 163.302 271.499 162.898V162.898Z" fill="white"/>
<path d="M138.62 165.881C138.987 165.679 139.336 165.327 139.785 165.367C140.445 165.476 141.036 165.804 141.659 166.027C142.006 167.614 142.003 169.274 142.255 170.878C142.274 171.066 142.294 171.255 142.313 171.444C142.371 171.488 142.484 171.573 142.543 171.617C143.402 170.925 144.358 170.363 145.287 169.77C146.145 169.233 147.149 168.763 148.186 168.923C148.842 169.081 149.193 169.724 149.508 170.263C150.216 171.696 150.829 173.177 151.415 174.663C152.08 176.278 152.792 177.899 153.114 179.622C153.075 180.17 152.817 180.677 152.338 180.966C150.224 182.34 148.059 183.635 145.893 184.924C145.651 185.059 145.416 185.246 145.125 185.223C144.968 184.947 144.77 184.7 144.547 184.478C145.072 183.96 145.557 183.402 146.045 182.851C146.013 182.828 145.945 182.781 145.912 182.759C145.773 181.925 145.499 181.122 145.28 180.305C144.784 178.507 144.241 176.721 143.732 174.927C143.625 174.429 143.031 173.849 142.556 174.303C142.421 174.825 142.507 175.371 142.51 175.903C142.627 179.577 142.779 183.247 142.853 186.92C143.039 188.192 142.858 189.5 143.065 190.773C143.212 193.157 143.532 195.528 143.667 197.914C143.996 200.819 143.979 203.769 144.442 206.663C144.737 207.47 145.587 207.863 146.3 208.231C146.347 208.309 146.439 208.465 146.484 208.545C146.457 208.638 146.399 208.829 146.37 208.923C141.867 209.033 137.361 209.012 132.855 209.017C132.377 209.017 131.895 209.041 131.42 208.962C131.669 208.344 132.101 207.795 132.679 207.459C133.263 207.131 133.851 206.783 134.316 206.297C134.486 206.128 134.554 205.897 134.535 205.665C134.538 201.083 134.53 196.503 134.52 191.922C134.57 191.273 134.405 190.634 134.433 189.985C134.436 186.533 134.386 183.079 134.355 179.627C134.169 177.611 134.336 175.572 134.063 173.561C132.422 173.56 130.769 173.482 129.138 173.689C128.85 173.611 128.413 173.44 128.383 173.101C131.769 170.66 135.149 168.202 138.62 165.881V165.881Z" fill="white"/>
<path d="M285.785 167.386C286.004 166.951 286.242 166.484 286.711 166.267C286.816 166.326 287.027 166.442 287.133 166.5C287.299 167.863 287.268 169.236 287.344 170.604C287.465 171.129 287.399 171.672 287.436 172.207C287.545 174.859 287.711 177.508 287.808 180.162C288.574 180.144 289.345 180.181 290.111 180.113C290.651 180.217 291.189 180.06 291.732 180.069C292.579 180.079 293.427 180.071 294.274 180.04C294.223 181.105 294.297 182.191 294.089 183.242C292.046 183.324 290 183.418 287.963 183.599C287.986 186.001 287.949 188.402 287.984 190.802C288.091 191.163 288.044 191.541 288.052 191.911C288.042 195.898 288.117 199.887 288.13 203.874C288.285 205.7 288.198 207.538 288.259 209.37C288.316 212.706 288.408 216.037 288.466 219.376C288.579 221.185 288.518 223.004 288.712 224.808C290.428 225.687 292.115 226.621 293.828 227.505C294.292 227.688 294.743 228.179 295.265 228.026C296.419 227.242 297.447 226.285 298.509 225.385C298.775 225.219 298.604 224.9 298.543 224.671C296.791 224.131 294.966 223.898 293.182 223.499C292.563 223.329 291.734 223.378 291.401 222.718C292.558 222.406 293.772 222.584 294.955 222.626C297.699 222.768 300.443 222.943 303.186 223.114C303.475 223.169 303.929 223.174 303.942 223.586C304.007 224.123 303.483 224.365 303.165 224.682C301.893 225.844 300.762 227.147 299.559 228.378C298.837 229.109 298.363 230.078 297.476 230.639C297.169 230.901 296.731 230.864 296.374 230.757C293.458 229.855 290.564 228.879 287.724 227.764C285.112 226.72 282.446 225.671 280.17 223.984C279.865 223.696 279.444 223.418 279.422 222.959C279.171 218.647 279.236 214.329 279.23 210.01C279.242 208.339 279.283 206.67 279.336 205C279.357 197.817 279.175 190.636 279.026 183.454C277.869 183.512 276.707 183.51 275.554 183.41C275.05 183.391 274.804 182.77 274.998 182.356C275.144 182.109 275.338 181.896 275.54 181.69C277.794 179.412 279.91 176.983 281.722 174.33C283.276 172.141 284.581 169.784 285.785 167.386V167.386Z" fill="white"/>
<path d="M325.833 173.808C326.286 173.469 326.77 173.905 326.842 174.374C327.11 175.793 327.095 177.249 327.334 178.673C329.017 177.663 330.712 176.674 332.375 175.63C332.744 175.405 333.038 175.025 333.494 174.97C333.798 174.914 334.221 174.93 334.399 175.234C335.152 176.286 335.79 177.417 336.466 178.521C337.51 180.349 338.578 182.175 339.346 184.141C339.617 184.782 339.661 185.509 339.532 186.19C339.044 187.181 338.071 187.78 337.277 188.503C335 190.343 332.692 192.147 330.373 193.935C330.156 193.602 329.856 193.34 329.571 193.073C330.195 192.115 330.932 191.232 331.587 190.295C331.635 190.077 331.561 189.86 331.504 189.653C330.937 187.888 330.408 186.111 329.843 184.344C329.562 183.444 329.288 182.544 328.999 181.648C328.403 182.062 327.805 182.478 327.187 182.861C327.259 187.717 327.504 192.569 327.58 197.427C327.75 199.088 327.65 200.776 327.745 202.447C327.91 203.884 327.776 205.348 327.932 206.788C328.015 210.465 328.209 214.137 328.383 217.808C328.542 219.079 329.505 220.052 330.557 220.68C331.886 221.476 333.384 221.946 334.885 222.292C335.144 222.361 335.407 222.406 335.674 222.481C336.299 222.563 336.922 222.692 337.555 222.756C337.547 223.111 337.531 223.467 337.518 223.822C336.152 223.9 334.785 223.806 333.421 223.829C332.833 223.791 332.238 223.858 331.663 223.74C329.81 223.745 327.963 223.535 326.164 223.098C324.364 222.701 322.586 222.209 320.825 221.669C318.604 221.017 316.282 220.53 313.959 220.808C313.806 220.451 313.646 220.095 313.545 219.722C315.486 219.551 316.831 217.899 317.848 216.391C318.638 214.768 318.636 212.91 318.673 211.145C318.727 206.077 318.606 201.01 318.573 195.942C318.431 194.612 318.525 193.256 318.468 191.916C318.481 189.12 318.276 186.334 318.324 183.538C317.521 183.492 316.723 183.648 315.921 183.615C315.905 183.42 315.892 183.223 315.882 183.027C316.231 182.499 316.53 181.923 317.015 181.501C319.987 178.977 322.879 176.356 325.833 173.808V173.808Z" fill="white"/>
<path d="M304.523 177.733C304.09 177.746 303.658 177.797 303.246 177.907C300.158 180.317 297.169 182.862 294.063 185.244C293.731 186.794 293.699 188.4 293.489 189.968C293.471 191.009 293.067 192.002 293.077 193.042C293.259 197.295 293.217 201.548 293.275 205.802C293.259 206.843 292.923 207.843 292.883 208.881C293.487 209.51 294.045 210.183 294.644 210.82C296.797 213.034 298.956 215.284 301.509 217.042C301.907 217.351 302.421 217.41 302.903 217.499C304.131 217.612 305.371 217.755 306.604 217.568C307.202 217.605 307.653 217.15 307.986 216.707C309.107 215.059 310.378 213.518 311.59 211.935C312.236 211.029 313.036 210.218 313.521 209.208C312.458 207.674 311.653 205.929 310.354 204.578C310.206 204.591 309.911 204.619 309.764 204.63C309.654 205.64 309.416 206.625 309.198 207.616C308.569 210.192 307.885 212.78 306.729 215.18C306.598 215.421 306.459 215.905 306.103 215.665C304.316 214.659 302.998 212.831 302.539 210.836C302.261 209.177 302.353 207.483 302.212 205.81C302.167 203.712 302.129 201.615 302.127 199.515C302.113 199.244 302.152 198.953 302.014 198.707C302.173 198.458 302.108 198.168 302.046 197.903C302.121 196.765 301.771 195.526 302.366 194.465C304.077 194.445 305.726 194.956 307.38 195.337C308.371 195.578 309.356 195.838 310.345 196.093C310.554 196.156 310.762 196.203 310.98 196.255C311.697 196.445 312.421 196.617 313.141 196.804C313.402 196.862 313.747 196.941 313.937 196.687C315.374 195.349 316.26 193.548 317.162 191.838C316.851 190.765 316.377 189.731 316.01 188.671C315.462 187.224 314.908 185.78 314.378 184.327C314.037 183.503 313.796 182.636 313.424 181.826C312.327 181.135 311.147 180.567 310.014 179.927C309.589 179.706 309.162 179.488 308.737 179.273C307.614 178.718 306.508 178.095 305.299 177.75C305.043 177.734 304.783 177.726 304.523 177.733V177.733ZM304.24 180.566C304.544 180.573 304.809 180.726 304.871 181.087C305.499 182.703 306.138 184.312 306.778 185.923C307.605 187.961 308.357 190.033 309.234 192.049C309.23 192.186 309.229 192.323 309.23 192.461C308.244 192.511 307.262 192.325 306.289 192.218C304.893 192.137 303.504 191.939 302.111 191.822C302.116 190.174 302.292 188.534 302.354 186.889C302.554 184.958 302.405 182.919 303.234 181.115C303.396 180.785 303.85 180.556 304.24 180.566H304.24Z" fill="white"/>
<path d="M183.811 181.034C185.18 181.304 186.591 181.125 187.975 181.286C189.214 181.311 190.444 181.445 191.671 181.6C192.361 181.624 193.062 181.658 193.743 181.497C193.726 181.632 193.712 181.77 193.697 181.905C193.111 182.862 192.548 183.845 192.125 184.887C190.625 188.126 188.872 191.236 187.133 194.352C185.568 197.112 184.177 199.968 182.636 202.743C178.573 210.043 174.143 217.16 169.067 223.803C166.305 223.856 163.546 223.619 160.805 223.292C158.203 222.886 155.611 222.374 153.082 221.632C152.209 221.398 151.351 221.109 150.496 220.819C149.899 220.604 149.297 220.409 148.71 220.17C148.097 219.937 147.498 219.677 146.898 219.42C145.827 218.953 144.781 218.432 143.755 217.878C143.682 217.277 144.126 216.748 144.383 216.233C145.466 214.529 146.901 213.093 148.359 211.714C150.467 211.856 152.568 212.108 154.672 212.283C155.194 212.435 155.81 212.217 156.27 212.559C156.22 212.858 155.907 212.886 155.684 212.97C153.948 213.448 152.202 213.888 150.475 214.395C150.11 214.463 150.061 214.885 149.916 215.163C149.636 215.926 149.258 216.685 149.237 217.514C150.481 218.109 151.889 218.195 153.23 218.432C157.642 219.03 162.124 219.303 166.562 218.853C168.172 216.213 169.853 213.616 171.491 210.993C171.979 210.279 172.383 209.508 172.926 208.832C173.175 208.522 173.028 208.087 172.964 207.735C171.831 203.743 170.58 199.785 169.35 195.822C168.817 194.15 168.286 192.475 167.742 190.807C167.462 190.002 167.215 189.185 166.931 188.381C166.628 187.562 166.387 186.717 166.004 185.93C165.537 185.351 164.724 185.232 164.028 185.16C164.091 184.944 164.196 184.743 164.333 184.564C164.891 184.558 165.447 184.54 166.004 184.507C167.769 184.333 169.558 184.423 171.33 184.301C173.631 184.333 175.923 184.01 178.216 183.935C177.77 184.902 176.445 184.785 175.868 185.626C175.577 185.951 175.54 186.413 175.656 186.819C176.553 190.248 177.453 193.679 178.423 197.089C178.564 197.474 178.598 197.931 178.932 198.211C180.56 195.664 181.971 192.986 183.462 190.356C184.06 189.256 184.668 188.16 185.222 187.037C185.491 186.492 185.515 185.873 185.728 185.311C185.93 184.656 186.147 184.005 186.378 183.36C186.488 183.079 186.604 182.798 186.716 182.516C185.597 182.41 184.645 181.736 183.811 181.034V181.034Z" fill="white"/>
</svg>
